<svg width="70" height="70" viewBox="0 0 70 70" fill="none" xmlns="http://www.w3.org/2000/svg">
<path d="M44.1956 41.3853C44.441 39.342 44.5703 37.2215 44.5703 35.047C44.5703 18.4611 37.0516 5.01562 27.7767 5.01562C18.5019 5.01562 10.9832 18.4611 10.9832 35.047C10.9832 51.1899 18.1058 64.358 27.0376 65.0498" stroke="#4F963E" stroke-width="2" stroke-miterlimit="2.6131" stroke-linecap="round" stroke-linejoin="round"/>
<path d="M68.4961 31.2406H58.9275C57.0476 31.2406 55.5093 29.7024 55.5093 27.8224C55.5093 25.9424 57.0475 24.4043 58.9275 24.4043H68.4961" stroke="#4F963E" stroke-width="2" stroke-miterlimit="22.9256" stroke-linecap="round" stroke-linejoin="round"/>
<path d="M68.4961 4.92188H18.2975C9.02262 4.92188 1.50391 18.3883 1.50391 35C1.50391 51.6117 9.02262 65.0781 18.2975 65.0781H68.4961" stroke="#A1A1A9" stroke-width="2" stroke-miterlimit="2.6131" stroke-linecap="round" stroke-linejoin="round"/>
<path d="M37.5721 58.2422C42.8577 58.2422 47.1425 53.9574 47.1425 48.6719C47.1425 43.3863 42.8577 39.1016 37.5721 39.1016C32.2866 39.1016 28.0018 43.3863 28.0018 48.6719C28.0018 53.9574 32.2866 58.2422 37.5721 58.2422Z" stroke="#A1A1A9" stroke-width="2" stroke-miterlimit="2.6131" stroke-linecap="round" stroke-linejoin="round"/>
<path d="M68.496 39.1016H56.8834C51.6203 39.1016 47.3131 43.4082 47.3131 48.6719C47.3131 53.9355 51.6199 58.2422 56.8834 58.2422" stroke="#A1A1A9" stroke-width="2" stroke-miterlimit="2.6131" stroke-linecap="round" stroke-linejoin="round"/>
<path d="M68.4961 58.2422H27.7767C22.2772 58.2422 17.8191 47.8363 17.8191 35C17.8191 22.1637 22.2774 11.7578 27.7767 11.7578C33.2762 11.7578 37.7344 22.1636 37.7344 35C37.7344 36.2298 37.6933 37.4373 37.6145 38.6154" stroke="#A1A1A9" stroke-width="2" stroke-miterlimit="2.6131" stroke-linecap="round" stroke-linejoin="round"/>
<path d="M68.4961 16.543H58.9258C57.0462 16.543 55.5078 15.0049 55.5078 13.125V5.60547" stroke="#A1A1A9" stroke-width="2" stroke-miterlimit="22.9256" stroke-linecap="round" stroke-linejoin="round"/>
<path d="M68.4961 50.7227H58.08" stroke="#A1A1A9" stroke-width="2" stroke-miterlimit="22.9256" stroke-linecap="round" stroke-linejoin="round"/>
</svg>
