<svg width="70" height="70" fill="none" xmlns="http://www.w3.org/2000/svg"><path d="M44.196 41.385c.245-2.043.374-4.163.374-6.338 0-16.586-7.518-30.031-16.793-30.031-9.275 0-16.794 13.445-16.794 30.031 0 16.143 7.123 29.311 16.055 30.003" stroke="#4F963E" stroke-width="2" stroke-miterlimit="2.613" stroke-linecap="round" stroke-linejoin="round"/><path d="M68.496 31.24h-9.568a3.428 3.428 0 01-3.419-3.418 3.428 3.428 0 013.419-3.418h9.568" stroke="#4F963E" stroke-width="2" stroke-miterlimit="22.926" stroke-linecap="round" stroke-linejoin="round"/><path d="M68.496 4.922H18.298C9.022 4.922 1.503 18.388 1.503 35c0 16.612 7.519 30.078 16.793 30.078h50.2" stroke="#A1A1A9" stroke-width="2" stroke-miterlimit="2.613" stroke-linecap="round" stroke-linejoin="round"/><path d="M37.572 58.242a9.57 9.57 0 100-19.14 9.57 9.57 0 000 19.14z" stroke="#A1A1A9" stroke-width="2" stroke-miterlimit="2.613" stroke-linecap="round" stroke-linejoin="round"/><path d="M68.496 39.102H56.883c-5.263 0-9.57 4.306-9.57 9.57s4.307 9.57 9.57 9.57" stroke="#A1A1A9" stroke-width="2" stroke-miterlimit="2.613" stroke-linecap="round" stroke-linejoin="round"/><path d="M68.496 58.242h-40.72c-5.499 0-9.957-10.406-9.957-23.242s4.458-23.242 9.958-23.242S37.734 22.164 37.734 35c0 1.23-.04 2.437-.12 3.615" stroke="#A1A1A9" stroke-width="2" stroke-miterlimit="2.613" stroke-linecap="round" stroke-linejoin="round"/><path d="M68.496 16.543h-9.57a3.428 3.428 0 01-3.418-3.418v-7.52m12.988 45.118H58.08" stroke="#A1A1A9" stroke-width="2" stroke-miterlimit="22.926" stroke-linecap="round" stroke-linejoin="round"/></svg>